<?xml version="1.0" encoding="UTF-8"?>
<svg width="208px" height="191px" viewBox="0 0 208 191" version="1.1" xmlns="http://www.w3.org/2000/svg" xmlns:xlink="http://www.w3.org/1999/xlink">
    <!-- Generator: Sketch 52.6 (67491) - http://www.bohemiancoding.com/sketch -->
    <title>logo@3x</title>
    <desc>Created with Sketch.</desc>
    <g id="cestitka" stroke="none" stroke-width="1" fill="none" fill-rule="evenodd">
        <g id="Artboard" transform="translate(-726.000000, -498.000000)" fill="#FFFFFF">
            <g id="logo" transform="translate(726.000000, 498.000000)">
                <g>
                    <path d="M19.6908,189.579774 C18.8186667,189.579774 18.0309333,189.579774 17.2432,189.579774 C16.9834491,189.538194 16.7617978,189.370841 16.6524,189.133704 C16.4473499,188.364456 16.2969372,187.581918 16.2022667,186.791836 C16.2022667,185.397867 16.2022667,184.003898 15.8928,182.609929 C15.9078605,181.803936 15.5991373,181.02504 15.0345737,180.444658 C14.4700101,179.864276 13.695873,179.529971 12.8825333,179.515318 C10.6881333,179.292283 8.4656,179.320162 6.1868,179.236524 L6.1868,189.579774 L3.62666667,189.579774 L3.62666667,166.85808 L12.0666667,166.85808 C13.4449062,166.839159 14.8068481,167.155034 16.0334667,167.7781 C18.0439075,168.811568 19.173093,170.993603 18.8468,173.214579 C18.8219316,175.678085 17.0424154,177.780215 14.5986667,178.232867 L14.1766667,178.428022 L14.88,178.428022 C16.9731594,178.630503 18.5618873,180.38655 18.5373333,182.470532 C18.5373333,183.585707 18.5373333,184.728762 18.7061333,185.843937 C18.6030619,187.163339 18.9497952,188.478849 19.6908,189.579774 Z M6.1868,177.368606 L6.55253333,177.368606 C8.0436,177.368606 9.5628,177.368606 11.0538667,177.368606 C12.0139856,177.319061 12.9617072,177.131228 13.8672,176.811018 C15.6884198,176.171748 16.7728188,174.31775 16.4273333,172.433956 C16.4369457,170.635568 15.1239958,169.097907 13.3326667,168.809637 C10.9928762,168.497897 8.62953998,168.395259 6.2712,168.502964 L6.1868,177.368606 Z" id="Shape"></path>
                    <path d="M22.2790667,166.85808 L24.7548,166.85808 L24.7548,167.638703 C24.7548,172.787095 24.7548,177.926194 24.7548,183.055999 C24.721679,183.482853 24.721679,183.911597 24.7548,184.338451 C24.8702558,186.415398 26.5674467,188.060969 28.6653333,188.130046 C29.6639151,188.268173 30.6770183,188.268173 31.6756,188.130046 C33.909382,187.799066 35.4841688,185.783839 35.2485333,183.557828 C35.2485333,178.279332 35.2485333,173.01013 35.2485333,167.75022 L35.2485333,166.941718 L37.7242667,166.941718 L37.7242667,167.582944 C37.7242667,172.852147 37.7242667,178.121349 37.7242667,183.390552 C37.7251195,184.045983 37.65914,184.699823 37.5273333,185.342108 C37.1082113,187.487129 35.4156267,189.164435 33.2510667,189.579774 C31.1355533,190.099314 28.9240467,190.099314 26.8085333,189.579774 C24.2605174,189.052034 22.4104295,186.861194 22.3353333,184.282692 C22.3353333,183.613587 22.3353333,182.916602 22.3353333,182.247497 C22.3353333,177.359313 22.3353333,172.471128 22.3353333,167.582944 L22.2790667,166.85808 Z" id="Path"></path>
                    <path d="M96.2697333,61.3346327 C95.9963201,60.9945845 95.7052144,60.6688836 95.3976,60.3588544 C94.6661333,59.6897494 93.8502667,59.076403 93.1469333,58.3515392 C91.5996,56.790294 90.0522667,55.2290488 88.6456,53.5562861 C87.2389333,51.8835234 86.0292,50.2107607 84.7913333,48.4822392 C84.0338867,47.5977839 84.0338867,46.2999628 84.7913333,45.4155076 C85.0059141,45.1711487 85.3093171,45.0208165 85.6353333,44.9973169 C86.6550593,45.0363246 87.5951887,45.5539041 88.1673333,46.3912858 C89.1617251,47.5833099 90.2230958,48.7188706 91.3464,49.79257 C94.1597333,52.3295934 96.9730667,54.8108581 99.7864,57.2921228 C99.9552,57.4315197 100.264667,57.4315197 100.517867,57.5151578 C100.771067,57.598796 100.517867,56.9854496 100.517867,56.7624146 C100.517867,56.5393796 99.8989333,55.8423951 99.6176,55.3684457 C98.3516,53.3611304 97.1418667,51.2980564 95.8477333,49.3186206 C95.2342878,48.5043615 94.567,47.7313342 93.8502667,47.0046321 C93.1714474,46.2968127 92.5327771,45.5522185 91.9372,44.7742819 C91.619667,44.4275887 91.4632889,43.9648881 91.5060639,43.4986109 C91.5488388,43.0323336 91.7868512,42.605163 92.1622667,42.3208966 C92.469322,42.0092423 92.8902674,41.8335236 93.3298,41.8335236 C93.7693326,41.8335236 94.190278,42.0092423 94.4973333,42.3208966 C95.5382667,43.2130367 96.4385333,44.2445737 97.3106667,45.1088344 C98.1828,45.9730951 98.3797333,46.3355271 98.9705333,46.8931146 C100.452744,48.2784026 101.765283,49.8317457 102.881067,51.5210915 C103.696933,52.7756635 104.625333,53.9465974 105.5256,55.1175313 C105.655025,55.3696936 105.894324,55.5488274 106.174473,55.6032626 C106.454621,55.6576978 106.744465,55.5813809 106.9604,55.3963251 C107.478833,55.156144 107.714453,54.5539785 107.494933,54.0302355 C107.326133,53.4726479 107.157333,52.9429398 107.016667,52.3853522 C106.5384,50.5453132 106.144533,48.6773948 105.61,46.8094765 C105.322517,46.0580895 104.993804,45.3228359 104.625333,44.6070056 C104.2596,43.6869861 103.893867,42.7669666 103.5844,41.8190677 C103.367415,41.2496924 103.574618,40.6072144 104.084603,40.2680769 C104.594588,39.9289395 105.273079,39.9824351 105.722533,40.3972194 C106.458762,41.0328683 107.069314,41.7986238 107.523067,42.6554491 C108.789067,45.4433869 109.970667,48.4822392 111.067867,51.4374533 C111.734657,53.4796753 112.681277,55.4214897 113.8812,57.2084847 C115.1472,58.9370061 116.469467,60.6655276 117.5948,62.4776872 C118.213497,63.6104888 118.677089,64.8199488 118.973333,66.074127 C119.007271,66.317883 119.141296,66.5369247 119.343711,66.6794474 C119.546125,66.82197 119.798954,66.8753166 120.0424,66.8268702 L130.986267,66.8268702 L152.142533,66.8268702 L152.902133,66.8268702 C152.902133,65.4329013 152.902133,64.0389324 152.902133,62.7843604 C152.812028,58.3483271 152.284361,53.9316581 151.326667,49.5974143 C150.107266,43.550959 147.292084,37.9329389 143.168,33.3158573 C139.280276,29.2471455 134.452806,26.1758862 129.101333,24.3665768 C124.452585,22.7434381 119.627445,21.6673475 114.7252,21.1604483 L114.3032,21.1604483 L114.8096,20.5192226 C120.179659,14.1437129 126.904218,9.02206259 134.502933,5.52011694 C139.57095,3.12936276 145.01285,1.61146568 150.5952,1.031537 C160.28737,0.033775766 170.050733,2.08195977 178.503467,6.88620649 C186.43989,11.3903676 192.986108,17.9546069 197.4372,25.8720632 C201.278592,32.6169911 203.897109,39.9770148 205.173867,47.6179785 C206.225854,53.4583929 206.659584,59.3916971 206.468,65.3213838 C206.189592,76.6183631 202.132268,87.5036708 194.933333,96.2674939 C190.354569,101.766251 185.088932,106.665837 179.263067,110.848409 C173.017467,115.476386 166.378,119.546775 159.738533,123.645044 L156.9252,125.373565 L156.784533,125.373565 C156.784533,123.951717 156.559467,122.585627 156.390667,121.1359 C155.474747,109.601568 149.328468,99.1016063 139.679467,92.587416 C134.906429,89.3998019 129.79266,86.7444501 124.4312,84.6696725 C120.802,83.1920654 117.1728,81.8817346 113.5436,80.3483688 C113.253194,80.1596426 112.877473,80.1596426 112.587067,80.3483688 C110.98117,81.4342452 109.029839,81.9003205 107.101067,81.6586996 C103.487061,81.4580085 99.913537,80.8022185 96.4666667,79.7071431 C94.216,78.8986411 91.9372,78.1737773 89.6584,77.4767928 C88.2236,77.0586022 86.8450667,76.7798084 85.2977333,76.3616177 C84.6248215,76.1552534 83.9668576,75.9037582 83.3284,75.6088745 C82.9196383,75.509086 82.590073,75.2102693 82.4535382,74.8156375 C82.3170034,74.4210057 82.3922171,73.9846603 82.6532,73.657318 C83.5012939,72.2766024 85.084834,71.5137746 86.7044,71.7057615 C87.4944415,71.7541215 88.2771294,71.8849494 89.0394667,72.0960728 C90.8962667,72.5421428 92.7530667,73.071851 94.6661333,73.4900417 C96.5792,73.9082324 96.5792,73.7688355 96.5792,71.9566759 C96.6188573,70.7111526 96.0921711,69.5137797 95.1444,68.6947886 C94.3848,68.0256835 93.7377333,67.2171815 93.0062667,66.4923177 C92.5887203,66.0918569 92.1368919,65.7280602 91.6558667,65.4050219 C89.0494997,63.6914757 86.6100907,61.7407642 84.3693333,59.5782318 C83.3565333,58.5745742 82.2874667,57.6266753 81.2746667,56.6230177 C80.9274035,56.2463377 80.633954,55.8242079 80.4025333,55.3684457 C79.9466427,54.6532594 80.0904998,53.7147492 80.7401333,53.1659748 C81.2858568,52.6256065 82.1498768,52.5661467 82.7657333,53.0265779 C83.5297099,53.4816948 84.2297129,54.0347674 84.8476,54.6714612 C85.895069,55.7914926 87.1211349,56.7333518 88.4768,57.4593991 C90.4461333,58.5466948 92.3310667,59.8291462 94.1034667,61.0558389 C95.0037333,61.724944 95.3694667,61.8085821 96.2697333,61.3346327 Z" id="Path"></path>
                    <path d="M92.95,20.9652926 L90.3617333,21.3277245 C82.8927821,22.3140316 75.725399,24.8812669 69.3461333,28.8551567 C62.3414382,33.359674 57.1695666,40.173505 54.7449333,48.0919279 C53.3414498,52.5284493 52.4726539,57.1139621 52.1566667,61.7528234 C51.8549453,65.9479956 51.8549453,70.1591302 52.1566667,74.3543024 C52.326959,80.2891773 53.9179988,86.098996 56.7986667,91.3049646 C59.1719995,95.1675922 62.2882003,98.5303693 65.9701333,101.202144 C70.603198,104.637446 75.5697615,107.607295 80.7964,110.067786 C86.7888,112.855724 92.8937333,115.643662 98.8861333,118.4316 C101.699467,119.714051 104.147067,121.219538 106.7072,122.641386 C110.362046,124.756547 112.650823,128.596522 112.755867,132.78948 C113.0904,135.703534 112.870923,138.653905 112.1088,141.487846 C111.142423,145.815787 107.375631,148.969428 102.908209,149.190783 C98.4407862,149.412138 94.3753377,146.646573 92.9781333,142.435745 C92.2506304,140.394857 91.888827,138.243632 91.9090667,136.079246 C91.9090667,133.904655 91.9090667,131.730063 91.9090667,129.583351 L91.9090667,128.802729 L55.7296,128.802729 C55.3087451,128.815695 54.8917613,128.719597 54.5198667,128.523935 C47.6834667,124.342028 40.7908,120.160121 34.0669333,115.894576 C27.4086583,111.688181 21.3038134,106.677949 15.8928,100.979109 C9.81429212,94.6832656 5.3475448,87.035012 2.86706667,78.6756061 C1.39225169,73.3942876 0.700432346,67.9284752 0.813333333,62.4498078 C0.803213407,52.9434391 2.46938034,43.5084292 5.73666667,34.5704293 C8.76754822,26.2503368 13.7307506,18.7533575 20.2253333,12.6851172 C27.098226,6.17501769 35.8338125,1.92942146 45.2358667,0.529708191 C57.3088863,-1.24435736 69.6080009,1.6504394 79.5866667,8.61472795 C84.4736458,11.8682949 88.8366423,15.8347393 92.528,20.3798257 L92.95,20.9652926 Z" id="Path"></path>
                    <path d="M101.6432,186.373645 L101.6432,166.85808 L104.062667,166.85808 L104.062667,189.579774 C103.049867,189.579774 102.037067,189.579774 101.0524,189.579774 C100.8836,189.579774 100.686667,189.328859 100.574133,189.133704 L91.4870667,171.736972 C91.1772614,171.116004 90.819858,170.519495 90.418,169.952691 L90.418,189.468256 L88.0266667,189.468256 L88.0266667,166.830201 C89.0394667,166.830201 90.0804,166.830201 91.1213333,166.830201 C91.1213333,166.830201 91.4026667,167.108995 91.5152,167.276271 L99.9552,183.279034 L101.615067,186.401525 L101.6432,186.373645 Z" id="Path"></path>
                    <path d="M157.094,179.348042 L157.094,189.579774 L154.702667,189.579774 L154.702667,166.830201 L163.142667,166.830201 C164.89346,166.747186 166.617466,167.280458 168.009733,168.335687 C169.607391,169.777569 170.23062,171.998774 169.613333,174.05096 C169.311463,176.001925 167.859347,177.583735 165.927867,178.06559 L165.252667,178.288625 L165.7872,178.288625 C167.854377,178.47562 169.438612,180.190472 169.444533,182.247497 C169.444533,183.613587 169.5852,185.035435 169.641467,186.373645 C169.609432,187.500501 170.011835,188.59712 170.7668,189.440377 C169.754,189.440377 168.881867,189.440377 167.953467,189.440377 C167.784667,189.440377 167.531467,189.050066 167.503333,188.827031 C167.334533,187.739735 167.193867,186.652439 167.081333,185.565143 C166.9688,184.477847 167.081333,183.390552 166.828133,182.331135 C166.828269,181.500641 166.491548,180.704945 165.893684,180.122963 C165.295819,179.540981 164.48699,179.22156 163.649067,179.236524 C161.510933,179.236524 159.344667,179.348042 157.094,179.348042 Z M157.094,177.424365 L157.487867,177.424365 C158.978933,177.424365 160.441867,177.424365 161.932933,177.424365 C162.89125,177.380355 163.838442,177.202014 164.746267,176.894657 C166.446245,176.299539 167.515314,174.629802 167.334533,172.852147 C167.473476,170.904805 166.075988,169.179787 164.127333,168.893275 C161.835575,168.568321 159.514755,168.493528 157.206533,168.67024 L157.206533,177.340727 L157.094,177.424365 Z" id="Shape"></path>
                    <path d="M150.735867,172.656991 L148.344533,172.656991 C148.445084,171.354042 147.929355,170.078696 146.948658,169.205127 C145.96796,168.331559 144.633502,167.958828 143.3368,168.19629 C142.014401,168.131664 140.71374,168.548084 139.679467,169.367224 C138.765919,170.121587 138.261635,171.256415 138.316884,172.433545 C138.372133,173.610675 138.980537,174.694217 139.9608,175.361291 C141.040138,175.997103 142.192432,176.50253 143.393067,176.866777 C144.7716,177.368606 146.2064,177.675279 147.613067,178.204987 C149.948548,178.801685 151.558731,180.917654 151.495467,183.306914 C151.677599,185.929948 150.081136,188.354243 147.584933,189.245221 C144.869018,190.282803 141.860849,190.282803 139.144933,189.245221 C137.090236,188.520617 135.643148,186.684629 135.431333,184.533606 C135.431333,183.892381 135.431333,183.223275 135.290667,182.526291 L137.794533,182.526291 C137.794533,182.805085 137.794533,183.083879 137.794533,183.390552 C137.717526,184.566774 138.11641,185.724958 138.903015,186.609094 C139.68962,187.49323 140.799168,188.030508 141.9864,188.102167 C143.495322,188.35852 145.046695,188.184478 146.4596,187.600338 C147.999957,186.991273 149.005313,185.507922 148.9916,183.864501 C149.180439,182.259186 148.273862,180.723956 146.769067,180.100785 C145.4468,179.487439 143.955733,179.125007 142.605333,178.651057 C141.254933,178.177108 140.354667,177.981952 139.2856,177.508003 C137.118437,176.743717 135.720188,174.65392 135.853333,172.378197 C135.847089,169.98104 137.387659,167.8482 139.679467,167.081115 C142.120484,166.181875 144.806316,166.181875 147.247333,167.081115 C149.585359,167.899587 151.035736,170.217788 150.735867,172.656991 Z" id="Path"></path>
                    <path d="M41.6629333,166.85808 L44.0824,166.85808 L44.0824,178.428022 L44.3074667,178.595299 C44.393185,178.409274 44.496821,178.231882 44.6169333,178.06559 C47.6834667,174.524909 50.75,171.039987 53.7884,167.471427 C54.1771873,166.891244 54.8632068,166.578308 55.5608,166.662925 C56.0761038,166.693913 56.5928295,166.693913 57.1081333,166.662925 L56.6298667,167.248392 C54.1541333,170.036329 51.7065333,172.824267 49.2308,175.612205 C49.0866487,175.734034 49.003618,175.912348 49.003618,176.100094 C49.003618,176.28784 49.0866487,176.466154 49.2308,176.587983 L57.6708,188.715513 L58.0928,189.356739 C57.1925333,189.356739 56.3766667,189.356739 55.5889333,189.356739 C55.4201333,189.356739 55.2513333,189.050066 55.1106667,188.882789 L48.0210667,178.818334 L47.3458667,177.870435 C46.2768,179.041369 45.2358667,180.184423 44.2512,181.327478 C44.1866161,181.526918 44.1866161,181.741384 44.2512,181.940824 C44.2512,184.171174 44.2512,186.401525 44.2512,188.631875 L44.2512,189.579774 L41.8317333,189.579774 L41.6629333,166.85808 Z" id="Path"></path>
                    <path d="M59.4994667,166.85808 L61.9470667,166.85808 L61.9470667,167.610823 C61.9470667,172.935785 61.9470667,178.232867 61.9470667,183.557828 C61.8087955,184.748841 62.1965182,185.940979 63.0105794,186.827829 C63.8246406,187.714679 64.9856513,188.209753 66.1952,188.185805 C67.1277279,188.32487 68.0760054,188.32487 69.0085333,188.185805 C71.1055627,187.871563 72.609787,186.017345 72.4689333,183.92026 C72.4689333,180.937166 72.4689333,177.926194 72.4689333,174.9431 C72.4689333,172.545473 72.4689333,170.147847 72.4689333,167.75022 L72.4689333,167.025357 L74.9165333,167.025357 L74.9165333,167.694462 C74.9165333,173.019423 74.9165333,178.316505 74.9165333,183.641466 C74.9144877,184.422792 74.8104692,185.200574 74.6070667,185.955455 C74.0385453,187.814043 72.4795633,189.208753 70.5558667,189.579774 C68.3703096,190.147943 66.0738237,190.147943 63.8882667,189.579774 C61.3557391,188.986663 59.5640394,186.749961 59.5557333,184.171174 C59.5557333,181.550513 59.5557333,178.957731 59.5557333,176.337069 C59.4994667,173.214579 59.4994667,170.064209 59.4994667,166.85808 Z" id="Path"></path>
                    <path d="M125.2752,189.579774 C124.4312,189.579774 123.699733,189.579774 122.9964,189.579774 C122.8276,189.579774 122.5744,189.273101 122.49,189.077945 C121.852311,187.21932 121.233378,185.360694 120.6332,183.502069 C120.575414,183.142268 120.23776,182.894412 119.8736,182.944482 L111.4336,182.944482 C111.269193,182.92072 111.102049,182.963459 110.969769,183.063084 C110.83749,183.162709 110.751184,183.310853 110.730267,183.47419 C110.139467,185.314229 109.520533,187.126388 108.9016,189.050066 L108.676533,189.635533 L106.144533,189.635533 C106.13535,189.496284 106.13535,189.35659 106.144533,189.217342 L113.993733,167.276271 C113.993733,166.913839 114.275067,166.774442 114.668933,166.774442 C115.512933,166.774442 116.3288,166.774442 117.2572,166.774442 L125.2752,189.579774 Z M111.546133,181.21596 L119.986133,181.21596 L115.8224,168.391446 L111.546133,181.21596 Z" id="Shape"></path>
                    <polygon id="Path" points="195.8336 168.586602 195.8336 176.950415 206.046 176.950415 206.046 178.428022 195.8336 178.428022 195.8336 187.739735 207.086933 187.739735 207.086933 189.579774 193.386 189.579774 193.386 166.85808 206.749333 166.85808 206.749333 168.558722"></polygon>
                    <path d="M187.6468,181.885065 L190.0944,181.885065 C190.07895,184.03135 189.302149,186.10386 187.9,187.739735 C186.271792,189.392664 183.974203,190.223407 181.6544,189.997964 C179.407679,190.059313 177.254618,189.105336 175.802667,187.405182 C174.67471,185.975074 173.95564,184.270663 173.7208,182.470532 C173.08457,179.101214 173.219163,175.633376 174.114667,172.322438 C175.0658,168.222232 179.163648,165.639179 183.314267,166.523528 C185.3433,166.605563 187.234592,167.563045 188.4908,169.144189 C189.405599,170.399568 189.879947,171.917488 189.8412,173.465493 L187.449867,173.465493 C187.449867,172.963664 187.449867,172.461835 187.196667,171.987886 C186.772704,169.891803 184.962793,168.35117 182.807867,168.252049 C179.954923,167.770013 177.225524,169.601874 176.618533,172.406077 C175.939049,174.807059 175.700814,177.309564 175.9152,179.794112 C175.946843,181.620918 176.31882,183.426207 177.0124,185.119073 C177.782437,186.666581 179.232045,187.773639 180.938305,188.117265 C182.644566,188.460891 184.415238,188.00237 185.733733,186.875474 C186.766901,185.725465 187.406927,184.281329 187.5624,182.749326 C187.590533,182.442653 187.618667,182.191738 187.6468,181.885065 Z" id="Path"></path>
                </g>
            </g>
        </g>
    </g>
</svg>